<svg width="20" height="28" viewBox="0 0 20 28" fill="none" xmlns="http://www.w3.org/2000/svg">
<path d="M10 27.6101C10 27.6101 20 17.8377 20 10.4234C20 7.68845 18.9464 5.06554 17.0711 3.13166C15.1957 1.19777 12.6522 0.111328 10 0.111328C7.34784 0.111328 4.8043 1.19777 2.92893 3.13166C1.05357 5.06554 3.95203e-08 7.68845 0 10.4234C0 17.8377 10 27.6101 10 27.6101ZM10 15.5794C8.67392 15.5794 7.40215 15.0362 6.46447 14.0692C5.52678 13.1023 5 11.7908 5 10.4234C5 9.05591 5.52678 7.74445 6.46447 6.77751C7.40215 5.81057 8.67392 5.26735 10 5.26735C11.3261 5.26735 12.5979 5.81057 13.5355 6.77751C14.4732 7.74445 15 9.05591 15 10.4234C15 11.7908 14.4732 13.1023 13.5355 14.0692C12.5979 15.0362 11.3261 15.5794 10 15.5794Z" fill="#424242"/>
</svg>
