<svg width="25" height="25" viewBox="0 0 25 25" fill="none" xmlns="http://www.w3.org/2000/svg">
<path d="M12.4897 2.0835C6.73975 2.0835 2.0835 6.75016 2.0835 12.5002C2.0835 18.2502 6.73975 22.9168 12.4897 22.9168C18.2502 22.9168 22.9168 18.2502 22.9168 12.5002C22.9168 6.75016 18.2502 2.0835 12.4897 2.0835ZM16.6668 16.6668C16.5705 16.7634 16.456 16.84 16.33 16.8923C16.204 16.9446 16.0689 16.9715 15.9325 16.9715C15.796 16.9715 15.6609 16.9446 15.5349 16.8923C15.4089 16.84 15.2944 16.7634 15.1981 16.6668L11.771 13.2397C11.6726 13.1433 11.5943 13.0282 11.5406 12.9013C11.487 12.7743 11.4591 12.638 11.4585 12.5002V8.3335C11.4585 7.76058 11.9272 7.29183 12.5002 7.29183C13.0731 7.29183 13.5418 7.76058 13.5418 8.3335V12.0731L16.6668 15.1981C17.0731 15.6043 17.0731 16.2606 16.6668 16.6668Z" fill="#424242"/>
</svg>
