<svg width="25" height="25" viewBox="0 0 25 25" fill="none" xmlns="http://www.w3.org/2000/svg">
<path d="M18.75 10.1562H17.1875C17.1869 9.53484 16.9398 8.93906 16.5003 8.49965C16.0609 8.06025 15.4652 7.81312 14.8438 7.8125V6.25C15.8794 6.25124 16.8722 6.66319 17.6045 7.39548C18.3368 8.12778 18.7488 9.12063 18.75 10.1562Z" fill="#424242"/>
<path d="M21.875 10.1562H20.3125C20.3108 8.70636 19.7341 7.31632 18.7089 6.29109C17.6837 5.26586 16.2936 4.68915 14.8438 4.6875V3.125C16.7079 3.12707 18.4951 3.86852 19.8133 5.18669C21.1315 6.50486 21.8729 8.29208 21.875 10.1562Z" fill="#424242"/>
<path d="M15.8854 16.7828L17.6354 15.0328C17.8696 14.7985 18.1675 14.6381 18.492 14.5714C18.8166 14.5048 19.1535 14.5348 19.4612 14.6578L21.5924 15.5109C21.9065 15.6366 22.1758 15.8536 22.3655 16.1337C22.5551 16.4139 22.6565 16.7445 22.6565 17.0828V20.9586C22.657 21.189 22.6106 21.417 22.5199 21.6288C22.4293 21.8406 22.2964 22.0316 22.1293 22.1902C21.9623 22.3489 21.7646 22.4718 21.5484 22.5513C21.3323 22.6309 21.1021 22.6656 20.8721 22.6531C5.93304 21.7234 2.91585 9.07032 2.3557 4.22501C2.32857 3.98813 2.35189 3.74819 2.42415 3.52097C2.4964 3.29376 2.61593 3.08441 2.77489 2.90671C2.93385 2.729 3.12864 2.58696 3.34643 2.48994C3.56422 2.39291 3.80008 2.34309 4.03851 2.34376H7.84554C8.18388 2.34375 8.51446 2.44511 8.79463 2.63477C9.07481 2.82443 9.29173 3.09369 9.41742 3.40782L10.2698 5.53907C10.3928 5.84671 10.4228 6.18367 10.3561 6.50821C10.2895 6.83275 10.1291 7.1306 9.89476 7.36485L8.14476 9.11485C8.14476 9.11485 9.11507 15.9367 15.8854 16.7828Z" fill="#424242"/>
</svg>
