<svg width="111" height="101" viewBox="0 0 111 101" fill="none" xmlns="http://www.w3.org/2000/svg">
<path fill-rule="evenodd" clip-rule="evenodd" d="M53.9447 3.54175e-06C67.6087 -0.00591471 80.5823 7.40574 88.9015 18.2452C96.38 27.9894 94.9553 40.9201 94.7769 53.202C94.6024 65.2059 95.7667 78.0887 87.9001 87.1574C79.6348 96.6857 66.5481 100.782 53.9447 100.274C41.8061 99.7838 31.7742 92.514 22.6235 84.5232C12.5448 75.7221 0.766958 66.5628 0.039851 53.202C-0.708642 39.4482 9.21474 27.9512 19.0182 18.2755C28.7402 8.68035 40.2852 0.00591987 53.9447 3.54175e-06Z" fill="url(#paint0_linear_112_502)" fill-opacity="0.94"/>
<path d="M105.9 23.2C103.359 23.2 101.3 25.2595 101.3 27.8C101.305 28.5699 101.506 29.3258 101.884 29.9965L99.614 32.1286C97.6479 29.3029 95.1947 26.8497 92.369 24.8836L94.5034 22.6158C95.1741 22.9939 95.93 23.1949 96.6999 23.2C98.8173 23.2146 100.675 21.7917 101.212 19.7436C101.75 17.6955 100.83 15.5437 98.9784 14.5169C97.1266 13.49 94.8143 13.8495 93.3617 15.3901C91.9091 16.9306 91.686 19.2601 92.8198 21.0483L90.3956 23.6301C78.8418 16.9281 64.1931 19.0725 55.0452 28.8051C45.8972 38.5376 44.6632 53.2909 52.0672 64.4079L41.8115 75.3122C41.3765 75.7752 41.3991 76.5033 41.8621 76.9383C42.3252 77.3734 43.0532 77.3507 43.4882 76.8877L53.4461 66.2985C54.8418 68.0623 56.4376 69.658 58.2013 71.0538L47.6121 81.0116C47.1491 81.4467 47.1265 82.1747 47.5615 82.6377C47.9966 83.1008 48.7246 83.1234 49.1876 82.6883L60.0919 72.4326C72.1142 80.4478 88.2216 78.2688 97.682 67.3473L102.512 67.7625C103.818 67.876 104.803 68.9979 104.746 70.3075C104.689 71.6171 103.611 72.6497 102.3 72.65C99.8435 72.6525 97.8524 74.6436 97.8499 77.1005V81.85C97.8499 82.4851 98.3648 83 98.9999 83C99.635 83 100.15 82.4851 100.15 81.85V77.1005C100.151 75.9129 101.114 74.9506 102.302 74.95C104.841 74.9444 106.926 72.9422 107.035 70.4054C107.144 67.8686 105.238 65.6949 102.709 65.4717L99.3898 65.1865C105.957 56.0198 106.536 43.8535 100.87 34.1043L103.452 31.6801C105.106 32.7334 107.246 32.6222 108.782 31.4032C110.318 30.1842 110.912 28.1254 110.262 26.2753C109.612 24.4251 107.861 23.1905 105.9 23.2ZM96.6999 16.3C97.7334 16.2953 98.6431 16.9806 98.9239 17.9752C99.2046 18.9699 98.7874 20.0297 97.9039 20.566C97.0204 21.1024 95.8877 20.9835 95.1348 20.2755V20.2686L95.121 20.2606C94.4445 19.6123 94.2288 18.6185 94.5758 17.7482C94.9228 16.8779 95.763 16.305 96.6999 16.3ZM52.1017 59.824C70.8146 58.1821 86.0621 44.1184 89.2077 25.5989C90.5624 26.382 91.8451 27.2837 93.0406 28.2933C90.9182 48.1865 74.2004 63.3166 54.1947 63.45C53.4025 62.2984 52.7027 61.086 52.1017 59.824ZM49.5499 48.5C49.5508 46.4209 49.7975 44.3491 50.2847 42.3279C51.0634 45.1242 52.133 47.8311 53.476 50.4044C52.2326 50.764 50.9717 51.0603 49.6982 51.2922C49.6 50.3647 49.5505 49.4327 49.5499 48.5ZM55.6989 49.6833C53.7602 46.0626 52.402 42.1599 51.6739 38.1178C52.5843 35.9994 53.7678 34.0092 55.1941 32.1976C56.1252 37.5743 58.0888 42.7198 60.9763 47.35C59.2774 48.2574 57.5134 49.0373 55.6989 49.6833ZM82.7734 22.9332C84.2417 23.3229 85.6731 23.8401 87.0514 24.4788C84.3325 42.566 69.4074 56.3329 51.1599 57.585C50.6818 56.2751 50.3088 54.9291 50.0444 53.56C65.9959 50.6126 78.7751 38.6542 82.7734 22.9332ZM69.4564 41.2653C66.2597 36.4659 64.1447 31.0289 63.2579 25.3309C64.4854 24.6552 65.7648 24.0784 67.084 23.6059C68.5006 28.3095 70.6898 32.7446 73.5619 36.7297C72.3131 38.3458 70.9405 39.8622 69.4564 41.2653ZM80.5252 22.4456C79.4205 26.8506 77.5489 31.0268 74.996 34.7828C72.4787 31.1525 70.5495 27.1481 69.2793 22.9171C72.9501 21.9508 76.7864 21.7899 80.5252 22.4456ZM61.143 26.6293C62.1819 32.4185 64.4223 37.9257 67.7199 42.796C66.2263 44.0481 64.6423 45.1881 62.9808 46.2069C59.8869 41.2662 57.9136 35.7073 57.1997 29.9217C58.4052 28.7 59.7258 27.5974 61.143 26.6293ZM55.937 65.7063C75.7779 64.7358 92.1768 49.8982 95.121 30.2529C96.481 31.675 97.679 33.2436 98.6929 34.93C96.2831 54.5168 79.6343 69.2244 59.8999 69.2C59.7849 69.2 59.6699 69.2 59.5549 69.2C58.2414 68.1522 57.03 66.9824 55.937 65.7063ZM82.5158 64.7863C86.4107 66.2051 90.4958 67.0339 94.6357 67.245C93.2529 68.6179 91.7234 69.8346 90.0747 70.8732C85.3628 70.7788 80.7055 69.8442 76.3219 68.1132C78.4771 67.1823 80.5492 66.0697 82.5158 64.7874V64.7863ZM96.6436 65.0071C92.6402 64.99 88.6627 64.3653 84.8469 63.1544C86.4341 61.9571 87.933 60.6469 89.3318 59.2341C92.4971 60.2147 95.7213 60.994 98.985 61.5674C98.2958 62.7739 97.5129 63.9244 96.6436 65.0082V65.0071ZM91.0718 57.3676C92.3394 55.9208 93.5048 54.3876 94.5598 52.7791C96.8767 53.6396 99.2617 54.3043 101.69 54.7663C101.3 56.3648 100.761 57.923 100.08 59.4204C97.0417 58.9027 94.0344 58.2178 91.0718 57.3688V57.3676ZM62.7749 71.3907C66.3423 71.1501 69.8635 70.4478 73.2502 69.3012C77.3311 71.193 81.6904 72.4143 86.1601 72.9179C78.5544 76.0895 69.9035 75.5245 62.7749 71.3907ZM102.146 52.5135C99.9842 52.1038 97.8578 51.5243 95.7868 50.7804C97.9981 46.9428 99.574 42.7727 100.454 38.4317C102.288 42.8842 102.874 47.753 102.146 52.5135ZM105.9 30.1C105.272 30.0992 104.671 29.8401 104.239 29.3835L104.231 29.3697H104.224C103.484 28.5746 103.403 27.3689 104.031 26.4821C104.658 25.5952 105.822 25.2706 106.819 25.7048C107.815 26.1389 108.369 27.2125 108.147 28.276C107.925 29.3396 106.986 30.1012 105.9 30.1Z" fill="#424242"/>
<defs>
<linearGradient id="paint0_linear_112_502" x1="-0.242414" y1="106.994" x2="90.7089" y2="56.7629" gradientUnits="userSpaceOnUse">
<stop stop-color="#C5C5A8"/>
<stop offset="1" stop-color="#E2E1CF"/>
<stop offset="1" stop-color="#E2E1CF"/>
</linearGradient>
</defs>
</svg>
