<svg width="10" height="18" viewBox="0 0 10 18" fill="none" xmlns="http://www.w3.org/2000/svg">
<path d="M9.75008 1.5C9.75065 1.79206 9.64893 2.0751 9.46258 2.29999L3.86258 9L9.26258 15.7125C9.36641 15.8404 9.44395 15.9875 9.49074 16.1454C9.53753 16.3033 9.55265 16.4689 9.53523 16.6327C9.5178 16.7965 9.46818 16.9552 9.38921 17.0998C9.31025 17.2443 9.20349 17.3718 9.07508 17.475C8.94722 17.5788 8.8001 17.6564 8.64218 17.7032C8.48425 17.7499 8.31864 17.7651 8.15485 17.7476C7.99107 17.7302 7.83234 17.6806 7.6878 17.6016C7.54325 17.5227 7.41574 17.4159 7.31258 17.2875L1.27508 9.7875C1.09123 9.56383 0.990723 9.28328 0.990723 8.99375C0.990723 8.70422 1.09123 8.42366 1.27508 8.2L7.52508 0.699997C7.63002 0.573423 7.75889 0.468794 7.90433 0.392105C8.04976 0.315414 8.2089 0.268167 8.37262 0.253073C8.53634 0.237978 8.70143 0.255333 8.85843 0.304138C9.01544 0.352943 9.16127 0.432241 9.28758 0.537495C9.43097 0.653812 9.54682 0.800451 9.62679 0.966873C9.70675 1.13329 9.74886 1.31536 9.75008 1.5Z" fill="#976464"/>
</svg>
