<svg width="106" height="100" viewBox="0 0 106 100" fill="none" xmlns="http://www.w3.org/2000/svg">
<path fill-rule="evenodd" clip-rule="evenodd" d="M44.7022 0.0359946C57.2583 -0.625697 67.7558 7.94977 77.1149 16.3463C87.204 25.3978 98.0164 35.2412 99.0107 48.7591C100.056 62.9713 92.6299 76.5421 82.2615 86.3184C72.1863 95.8184 58.5418 100.442 44.7022 99.9667C31.3339 99.5071 18.3717 93.9543 9.63954 83.8217C1.44695 74.3151 -0.574574 61.2562 0.57242 48.7591C1.61063 37.4472 7.90896 28.0109 15.5346 19.5915C23.7035 10.5724 32.5504 0.676374 44.7022 0.0359946Z" fill="url(#paint0_linear_112_506)" fill-opacity="0.94"/>
<path d="M98.4349 52.6094C96.8021 50.065 94.5016 48.029 91.7822 46.7218C91.1598 46.4225 90.413 46.6846 90.114 47.3068C89.8148 47.929 90.0767 48.6758 90.699 48.9749C95.4378 51.2529 98.4997 56.1203 98.4997 61.375C98.4997 63.6235 97.9454 65.8534 96.8971 67.8239C96.5728 68.4333 96.8039 69.1903 97.4134 69.5145C97.6004 69.614 97.8014 69.6613 97.9994 69.6613C98.4467 69.6613 98.8793 69.4205 99.1041 68.9981C100.344 66.6676 101 64.0315 101 61.375C101 58.255 100.113 55.2239 98.4349 52.6094Z" fill="#424242"/>
<path d="M78.8006 73.7752C74.0619 71.4971 71 66.6297 71 61.3751C71 59.1266 71.5542 56.8967 72.6026 54.9262C72.9269 54.3168 72.6957 53.5598 72.0862 53.2356C71.477 52.9113 70.7197 53.1425 70.3956 53.752C69.1555 56.0826 68.5 58.7186 68.5 61.3751C68.5 64.4951 69.3869 67.5261 71.0647 70.1407C72.6976 72.6851 74.9981 74.721 77.7175 76.0284C77.8921 76.1124 78.0766 76.152 78.2582 76.152C78.7237 76.152 79.1705 75.8909 79.3857 75.4434C79.6846 74.8212 79.4229 74.0743 78.8006 73.7752Z" fill="#424242"/>
<path d="M90.426 40.896C90.2739 40.5335 90.0875 40.1918 89.8707 39.875H93.1249C96.2954 39.875 98.8749 37.2955 98.8749 34.125C98.8749 30.9545 96.2954 28.375 93.1249 28.375H83.1149C83.7513 27.4497 84.1249 26.3304 84.1249 25.125C84.1249 21.9545 81.5454 19.375 78.3749 19.375H47.75C44.5795 19.375 42 21.9545 42 25.125C42 28.2955 44.5795 30.875 47.75 30.875H57.76C57.1236 31.8002 56.75 32.9196 56.75 34.125C56.75 35.3303 57.1235 36.4497 57.76 37.375H54.5C51.3295 37.375 48.75 39.9545 48.75 43.125C48.75 44.9458 49.6017 46.5707 50.9269 47.6249C49.6017 48.6792 48.75 50.3041 48.75 52.1249C48.75 53.9458 49.6017 55.5707 50.9269 56.6249C49.6017 57.6792 48.75 59.3041 48.75 61.1249C48.75 62.9458 49.6017 64.5707 50.9269 65.6249C49.6017 66.6792 48.75 68.304 48.75 70.1249C48.75 73.2954 51.3295 75.8749 54.5 75.8749H69.2312C73.1119 80.0258 78.6327 82.625 84.75 82.625C96.4673 82.625 106 73.0923 106 61.375C106 51.6229 99.3963 43.3853 90.426 40.896ZM93.1249 30.875C94.917 30.875 96.3749 32.333 96.3749 34.125C96.3749 35.917 94.917 37.375 93.1249 37.375H85.1249H62.5C60.7078 37.375 59.25 35.917 59.25 34.125C59.25 32.333 60.7078 30.875 62.5 30.875H93.1249ZM47.75 28.375C45.9579 28.375 44.5 26.917 44.5 25.125C44.5 23.333 45.9579 21.875 47.75 21.875H78.3749C80.1671 21.875 81.6249 23.333 81.6249 25.125C81.6249 26.917 80.1671 28.375 78.3749 28.375H47.75ZM54.5 39.875H85.1249C85.6284 39.875 86.1105 39.992 86.543 40.2015C85.9518 40.1518 85.354 40.1251 84.75 40.1251C78.8819 40.1251 73.5619 42.5162 69.7127 46.375H54.5C52.708 46.375 51.25 44.917 51.25 43.125C51.25 41.333 52.708 39.875 54.5 39.875ZM54.5 48.8749H67.5768C66.1578 50.8191 65.0607 53.0118 64.364 55.3749H54.5C52.7079 55.3749 51.25 53.9171 51.25 52.1249C51.25 50.3329 52.7079 48.8749 54.5 48.8749ZM54.5 57.8749H63.79C63.6003 59.0141 63.5001 60.1829 63.5001 61.375C63.5001 62.3933 63.5737 63.3945 63.7128 64.3749H54.5C52.7079 64.3749 51.25 62.917 51.25 61.1249C51.25 59.3328 52.7079 57.8749 54.5 57.8749ZM54.5 73.3749C52.7079 73.3749 51.25 71.917 51.25 70.1249C51.25 68.3328 52.7079 66.8749 54.5 66.8749H64.2232C64.854 69.2265 65.8786 71.4182 67.2223 73.3749H54.5ZM84.75 80.125C74.4113 80.125 66.0001 71.7138 66.0001 61.375C66.0001 51.0363 74.4113 42.6251 84.75 42.6251C95.0888 42.6251 103.5 51.0363 103.5 61.375C103.5 71.7138 95.0888 80.125 84.75 80.125Z" fill="#424242"/>
<defs>
<linearGradient id="paint0_linear_112_506" x1="0.0246637" y1="106.657" x2="92.7135" y2="53.2338" gradientUnits="userSpaceOnUse">
<stop stop-color="#C5C5A8"/>
<stop offset="1" stop-color="#E2E1CF"/>
<stop offset="1" stop-color="#E2E1CF"/>
</linearGradient>
</defs>
</svg>
