<svg width="12" height="12" viewBox="0 0 12 12" fill="none" xmlns="http://www.w3.org/2000/svg">
<path d="M7.89576 8.39838L8.87576 7.41838C9.00694 7.28717 9.17373 7.19733 9.35547 7.16001C9.53722 7.12268 9.72592 7.1395 9.8982 7.20838L11.0917 7.68613C11.2676 7.75651 11.4184 7.87799 11.5246 8.03489C11.6308 8.19179 11.6876 8.37691 11.6876 8.56638V10.7368C11.6879 10.8658 11.6619 10.9935 11.6111 11.1121C11.5603 11.2307 11.4859 11.3377 11.3924 11.4265C11.2988 11.5154 11.1881 11.5842 11.0671 11.6288C10.946 11.6733 10.8171 11.6927 10.6883 11.6858C2.32244 11.1651 0.632819 4.07938 0.319132 1.366C0.303939 1.23335 0.317002 1.09899 0.357463 0.971745C0.397923 0.844504 0.464864 0.727271 0.553882 0.627756C0.642899 0.528241 0.751977 0.4487 0.87394 0.394365C0.995903 0.340029 1.12799 0.312131 1.26151 0.312504H3.39344C3.58291 0.312498 3.76804 0.369261 3.92494 0.475472C4.08183 0.581683 4.20331 0.732469 4.27369 0.908379L4.75101 2.10188C4.81989 2.27416 4.83671 2.46286 4.79938 2.6446C4.76205 2.82634 4.67222 2.99314 4.54101 3.12432L3.56101 4.10432C3.56101 4.10432 4.10438 7.92457 7.89576 8.39838Z" fill="white"/>
</svg>
