<svg width="10" height="18" viewBox="0 0 10 18" fill="none" xmlns="http://www.w3.org/2000/svg">
<path d="M0.249918 16.5C0.249347 16.2079 0.351066 15.9249 0.537417 15.7L6.13742 9L0.737418 2.2875C0.633586 2.15964 0.556046 2.01252 0.509256 1.8546C0.462466 1.69668 0.44735 1.53106 0.464773 1.36728C0.482198 1.20349 0.531818 1.04476 0.610785 0.900218C0.689753 0.755672 0.796509 0.628157 0.924917 0.525004C1.05278 0.421172 1.1999 0.343633 1.35782 0.296843C1.51575 0.250053 1.68136 0.234936 1.84515 0.25236C2.00893 0.269784 2.16766 0.319406 2.3122 0.398373C2.45675 0.47734 2.58426 0.584096 2.68742 0.712504L8.72492 8.2125C8.90877 8.43617 9.00928 8.71672 9.00928 9.00625C9.00928 9.29578 8.90877 9.57634 8.72492 9.8L2.47492 17.3C2.36998 17.4266 2.24111 17.5312 2.09567 17.6079C1.95024 17.6846 1.7911 17.7318 1.62738 17.7469C1.46366 17.762 1.29857 17.7447 1.14157 17.6959C0.984562 17.6471 0.838728 17.5678 0.712418 17.4625C0.569026 17.3462 0.453183 17.1995 0.373215 17.0331C0.293246 16.8667 0.251139 16.6846 0.249918 16.5Z" fill="#976464"/>
</svg>
