<svg width="118" height="99" viewBox="0 0 118 99" fill="none" xmlns="http://www.w3.org/2000/svg">
<path fill-rule="evenodd" clip-rule="evenodd" d="M53.0267 1.8034C66.433 -0.51631 81.6296 -2.06725 91.9743 6.77C102.748 15.9737 105.036 31.5607 104.432 45.7176C103.855 59.2307 98.1768 71.7428 88.7859 81.4767C79.205 91.4076 66.8258 98.9499 53.0267 98.9997C39.186 99.0498 26.7033 91.614 17.0081 81.7362C7.41372 71.9612 -1.10147 59.2914 0.729298 45.7176C2.44426 33.0023 15.7436 26.5108 25.5693 18.2602C34.0643 11.127 42.0965 3.69469 53.0267 1.8034Z" fill="url(#paint0_linear_113_10)" fill-opacity="0.94"/>
<path d="M51.8594 68.9531C51.0899 68.9531 50.3377 69.1813 49.6979 69.6088C49.0581 70.0363 48.5594 70.644 48.2649 71.3549C47.9704 72.0658 47.8934 72.8481 48.0435 73.6028C48.1936 74.3575 48.5642 75.0507 49.1083 75.5948C49.6524 76.1389 50.3456 76.5095 51.1004 76.6596C51.8551 76.8097 52.6373 76.7327 53.3483 76.4382C54.0592 76.1437 54.6668 75.6451 55.0943 75.0053C55.5218 74.3655 55.75 73.6132 55.75 72.8438C55.7488 71.8122 55.3386 70.8233 54.6092 70.0939C53.8798 69.3646 52.8909 68.9543 51.8594 68.9531ZM51.8594 74.1406C51.6029 74.1406 51.3521 74.0646 51.1389 73.9221C50.9256 73.7796 50.7594 73.577 50.6612 73.34C50.5631 73.1031 50.5374 72.8423 50.5874 72.5907C50.6375 72.3392 50.761 72.1081 50.9423 71.9267C51.1237 71.7453 51.3548 71.6218 51.6064 71.5718C51.8579 71.5218 52.1187 71.5474 52.3557 71.6456C52.5926 71.7438 52.7952 71.91 52.9377 72.1232C53.0802 72.3365 53.1563 72.5873 53.1563 72.8438C53.1559 73.1876 53.0191 73.5172 52.776 73.7604C52.5329 74.0035 52.2032 74.1402 51.8594 74.1406Z" fill="#424242"/>
<path d="M101.141 68.9531C100.371 68.9531 99.6189 69.1813 98.9791 69.6088C98.3393 70.0363 97.8406 70.644 97.5462 71.3549C97.2517 72.0658 97.1746 72.8481 97.3248 73.6028C97.4749 74.3575 97.8454 75.0507 98.3895 75.5948C98.9337 76.1389 99.6269 76.5095 100.382 76.6596C101.136 76.8097 101.919 76.7327 102.63 76.4382C103.34 76.1437 103.948 75.6451 104.376 75.0053C104.803 74.3655 105.031 73.6132 105.031 72.8438C105.03 71.8122 104.62 70.8233 103.89 70.0939C103.161 69.3646 102.172 68.9543 101.141 68.9531ZM101.141 74.1406C100.884 74.1406 100.633 74.0646 100.42 73.9221C100.207 73.7796 100.041 73.577 99.9425 73.34C99.8443 73.1031 99.8186 72.8423 99.8687 72.5907C99.9187 72.3392 100.042 72.1081 100.224 71.9267C100.405 71.7453 100.636 71.6218 100.888 71.5718C101.139 71.5218 101.4 71.5474 101.637 71.6456C101.874 71.7438 102.076 71.91 102.219 72.1232C102.361 72.3365 102.438 72.5873 102.438 72.8438C102.437 73.1876 102.3 73.5172 102.057 73.7604C101.814 74.0035 101.484 74.1402 101.141 74.1406Z" fill="#424242"/>
<path d="M116.497 51.3918L104.825 33.2356C104.708 33.053 104.546 32.9029 104.356 32.7989C104.165 32.695 103.951 32.6405 103.734 32.6406H88.1719V25.5078C88.1705 24.3044 87.6919 23.1506 86.8409 22.2997C85.99 21.4487 84.8362 20.9701 83.6328 20.9688H40.8359C39.6325 20.9701 38.4788 21.4487 37.6278 22.2997C36.7769 23.1506 36.2982 24.3044 36.2969 25.5078V72.8438C36.2969 73.1877 36.4335 73.5176 36.6767 73.7608C36.9199 74.004 37.2498 74.1406 37.5938 74.1406H42.8753C43.187 76.3011 44.2668 78.2768 45.9169 79.7058C47.5669 81.1348 49.6766 81.9214 51.8594 81.9214C54.0422 81.9214 56.1519 81.1348 57.8019 79.7058C59.4519 78.2768 60.5317 76.3011 60.8435 74.1406H92.1565C92.4683 76.3011 93.5481 78.2768 95.1981 79.7058C96.8481 81.1348 98.9578 81.9214 101.141 81.9214C103.323 81.9214 105.433 81.1348 107.083 79.7058C108.733 78.2768 109.813 76.3011 110.125 74.1406H115.406C115.75 74.1406 116.08 74.004 116.323 73.7608C116.566 73.5176 116.703 73.1877 116.703 72.8438V52.0938C116.703 51.8449 116.632 51.6013 116.497 51.3918ZM51.8594 79.3281C50.5769 79.3281 49.3232 78.9478 48.2568 78.2353C47.1905 77.5228 46.3594 76.5101 45.8686 75.3252C45.3778 74.1404 45.2494 72.8366 45.4996 71.5787C45.7498 70.3209 46.3674 69.1655 47.2742 68.2586C48.1811 67.3517 49.3365 66.7342 50.5943 66.484C51.8522 66.2338 53.156 66.3622 54.3408 66.853C55.5257 67.3438 56.5384 68.1749 57.2509 69.2412C57.9634 70.3076 58.3438 71.5613 58.3438 72.8438C58.342 74.563 57.6583 76.2113 56.4426 77.427C55.2269 78.6427 53.5786 79.3264 51.8594 79.3281ZM85.5781 71.5469H60.8435C60.5317 69.3864 59.4519 67.4107 57.8019 65.9817C56.1519 64.5527 54.0422 63.7661 51.8594 63.7661C49.6766 63.7661 47.5669 64.5527 45.9169 65.9817C44.2668 67.4107 43.187 69.3864 42.8753 71.5469H38.8906V58.5781H85.5781V71.5469ZM85.5781 55.9844H38.8906V25.5078C38.8911 24.992 39.0961 24.4975 39.4609 24.1327C39.8256 23.768 40.3201 23.5629 40.8359 23.5625H83.6328C84.1486 23.5629 84.6432 23.768 85.0079 24.1327C85.3726 24.4975 85.5777 24.992 85.5781 25.5078V55.9844ZM105.527 39.125L113.031 50.7969H94.6562V39.125H105.527ZM101.141 79.3281C99.8581 79.3281 98.6045 78.9478 97.5381 78.2353C96.4717 77.5228 95.6406 76.5101 95.1498 75.3252C94.6591 74.1404 94.5306 72.8366 94.7808 71.5787C95.031 70.3209 95.6486 69.1655 96.5555 68.2586C97.4623 67.3517 98.6177 66.7342 99.8756 66.484C101.133 66.2338 102.437 66.3622 103.622 66.853C104.807 67.3438 105.82 68.1749 106.532 69.2412C107.245 70.3076 107.625 71.5613 107.625 72.8438C107.623 74.563 106.94 76.2113 105.724 77.427C104.508 78.6427 102.86 79.3264 101.141 79.3281ZM114.109 61.1719H111.516C111.172 61.1719 110.842 61.0352 110.599 60.792C110.355 60.5488 110.219 60.219 110.219 59.875C110.219 59.531 110.355 59.2012 110.599 58.958C110.842 58.7148 111.172 58.5781 111.516 58.5781H114.109V61.1719ZM114.109 55.9844H111.516C110.484 55.9844 109.494 56.3943 108.765 57.1239C108.035 57.8535 107.625 58.8431 107.625 59.875C107.625 60.9069 108.035 61.8965 108.765 62.6261C109.494 63.3557 110.484 63.7656 111.516 63.7656H114.109V71.5469H110.125C109.813 69.3864 108.733 67.4107 107.083 65.9817C105.433 64.5527 103.323 63.7661 101.141 63.7661C98.9578 63.7661 96.8481 64.5527 95.1981 65.9817C93.5481 67.4107 92.4683 69.3864 92.1565 71.5469H88.1719V35.2344H103.026L103.861 36.5312H93.3594C93.0154 36.5312 92.6856 36.6679 92.4423 36.9111C92.1991 37.1543 92.0625 37.4842 92.0625 37.8281V52.0938C92.0625 52.4377 92.1991 52.7676 92.4423 53.0108C92.6856 53.254 93.0154 53.3906 93.3594 53.3906H114.109V55.9844Z" fill="#424242"/>
<path d="M97.25 55.9844H93.3594C93.0154 55.9844 92.6856 56.121 92.4423 56.3642C92.1991 56.6074 92.0625 56.9373 92.0625 57.2812C92.0625 57.6252 92.1991 57.9551 92.4423 58.1983C92.6856 58.4415 93.0154 58.5781 93.3594 58.5781H97.25C97.594 58.5781 97.9238 58.4415 98.167 58.1983C98.4102 57.9551 98.5469 57.6252 98.5469 57.2812C98.5469 56.9373 98.4102 56.6074 98.167 56.3642C97.9238 56.121 97.594 55.9844 97.25 55.9844Z" fill="#424242"/>
<path d="M70.0156 63.7656H80.3906C80.7346 63.7656 81.0644 63.629 81.3077 63.3858C81.5509 63.1426 81.6875 62.8127 81.6875 62.4688C81.6875 62.1248 81.5509 61.7949 81.3077 61.5517C81.0644 61.3085 80.7346 61.1719 80.3906 61.1719H70.0156C69.6717 61.1719 69.3418 61.3085 69.0986 61.5517C68.8554 61.7949 68.7188 62.1248 68.7188 62.4688C68.7188 62.8127 68.8554 63.1426 69.0986 63.3858C69.3418 63.629 69.6717 63.7656 70.0156 63.7656Z" fill="#424242"/>
<path d="M80.3906 65.0625H76.5C76.156 65.0625 75.8262 65.1991 75.583 65.4423C75.3398 65.6856 75.2031 66.0154 75.2031 66.3594C75.2031 66.7033 75.3398 67.0332 75.583 67.2764C75.8262 67.5196 76.156 67.6562 76.5 67.6562H80.3906C80.7346 67.6562 81.0644 67.5196 81.3077 67.2764C81.5509 67.0332 81.6875 66.7033 81.6875 66.3594C81.6875 66.0154 81.5509 65.6856 81.3077 65.4423C81.0644 65.1991 80.7346 65.0625 80.3906 65.0625Z" fill="#424242"/>
<defs>
<linearGradient id="paint0_linear_113_10" x1="0.214008" y1="105.59" x2="94.7086" y2="47.6766" gradientUnits="userSpaceOnUse">
<stop stop-color="#C5C5A8"/>
<stop offset="1" stop-color="#E2E1CF"/>
<stop offset="1" stop-color="#E2E1CF"/>
</linearGradient>
</defs>
</svg>
