<svg width="195" height="195" viewBox="0 0 195 195" fill="none" xmlns="http://www.w3.org/2000/svg">
<path d="M160.793 121.632L156.243 115.813L149.505 118.144L150.195 115.796L155.087 114.168L151.855 110.145L152.526 107.861L156.906 113.44L163.907 111.032L163.218 113.38L158.05 115.099L161.464 119.348L160.793 121.632Z" fill="#976464"/>
<path d="M164.462 107.685L155.594 106.876L155.774 104.898L161.722 105.441C159.685 103.711 157.83 102.13 156.158 100.698L156.333 98.7782L165.202 99.5879L165.022 101.557L159.107 101.017L164.637 105.774L164.462 107.685Z" fill="#976464"/>
<path d="M158.12 96.6497L156.37 96.7725L155.825 88.9983L157.575 88.8755L157.776 91.7354L164.909 91.2353L165.053 93.2897L157.92 93.7899L158.12 96.6497Z" fill="#976464"/>
<path d="M163.415 81.3275L154.882 83.8768L152.609 76.2675L161.142 73.7182L161.726 75.6758L154.875 77.7228L155.981 81.4248L162.832 79.3778L163.415 81.3275Z" fill="#976464"/>
<path d="M162.217 69.044L151.86 74.2851L150.941 72.4695L152.264 71.8C150.913 71.5977 149.96 70.9502 149.407 69.8574C149.167 69.3821 149.028 68.8768 148.991 68.3415C148.954 67.8062 149.019 67.2778 149.186 66.7563C149.353 66.2348 149.651 65.736 150.081 65.2599C150.509 64.7789 151.044 64.3759 151.685 64.0511C152.323 63.7287 152.959 63.539 153.595 63.4819C154.228 63.4199 154.805 63.476 155.324 63.6504C155.84 63.8198 156.303 64.0779 156.713 64.4247C157.122 64.7715 157.448 65.1851 157.691 65.6653C158.242 66.7532 158.229 67.8892 157.652 69.0734L161.298 67.2284L162.217 69.044ZM154.948 70.4975C155.693 70.1206 156.187 69.584 156.432 68.8877C156.677 68.1914 156.638 67.5248 156.316 66.8877C155.991 66.2458 155.485 65.8245 154.799 65.624C154.108 65.4259 153.373 65.524 152.593 65.9183C151.844 66.2977 151.345 66.827 151.098 67.5061C150.846 68.1876 150.88 68.8445 151.2 69.4766C151.522 70.1137 152.039 70.5386 152.749 70.7513C153.46 70.964 154.193 70.8794 154.948 70.4975Z" fill="#976464"/>
<path d="M150.535 62.178C149.869 62.6898 149.131 63.0003 148.321 63.1095C147.504 63.2177 146.708 63.1092 145.932 62.7842C145.148 62.4581 144.485 61.9422 143.943 61.2365C143.398 60.5266 143.07 59.757 142.96 58.9278C142.845 58.1019 142.947 57.3104 143.265 56.5532C143.58 55.7993 144.075 55.1631 144.75 54.6446C145.246 54.2633 145.795 53.9945 146.395 53.8382C146.991 53.6854 147.583 53.6456 148.173 53.7191C148.758 53.7959 149.33 53.9943 149.887 54.3141C150.444 54.634 150.929 55.0619 151.34 55.5976C151.882 56.3033 152.208 57.0707 152.319 57.8999C152.429 58.7291 152.327 59.5206 152.013 60.2745C151.699 61.0283 151.206 61.6628 150.535 62.178ZM149.291 60.5576C149.918 60.0759 150.299 59.4581 150.433 58.7041C150.563 57.9534 150.39 57.2688 149.915 56.6503C149.423 56.01 148.807 55.6628 148.066 55.6086C147.325 55.5545 146.634 55.7733 145.994 56.265C145.363 56.75 144.984 57.3662 144.858 58.1135C144.725 58.8598 144.9 59.5466 145.381 60.1738C145.87 60.8098 146.482 61.1565 147.219 61.214C147.955 61.2715 148.646 61.0527 149.291 60.5576Z" fill="#976464"/>
<path d="M145.337 51.2713L144.63 50.6287C143.244 51.1656 141.641 52.4362 139.821 54.4403L139.084 55.2513L133.974 50.6094L138.782 45.3165L137.843 44.4635L140.664 41.762L141.927 42.9086L140.486 44.4941L145.109 48.6928L146.695 47.2404L147.957 48.387L145.337 51.2713ZM143.081 49.2217L140.294 46.6903L136.666 50.6843L138.837 52.6563L139.629 51.7843C140.733 50.5688 141.884 49.7146 143.081 49.2217Z" fill="#976464"/>
<path d="M136.115 44.2628C135.602 45.069 134.935 45.5037 134.114 45.5668C133.285 45.6316 132.414 45.3735 131.501 44.7926C130.764 44.3237 130.138 43.7786 129.622 43.1572L129.534 43.2962C129.2 43.8198 129.107 44.32 129.252 44.7968C129.39 45.2753 129.758 45.7048 130.356 46.0852C131.032 46.5158 131.848 46.8139 132.804 46.9795L132.397 48.6633C131.801 48.5769 131.252 48.4461 130.752 48.2708C130.244 48.0972 129.705 47.829 129.135 47.4663C128.042 46.7704 127.395 45.9713 127.194 45.069C126.986 44.1684 127.207 43.2084 127.855 42.1891L130.691 37.7343L132.401 38.8224L131.812 39.7468C132.879 39.4103 133.92 39.565 134.935 40.2108C135.421 40.5204 135.809 40.8877 136.098 41.3128C136.385 41.7425 136.538 42.2176 136.558 42.7382C136.578 43.2589 136.431 43.7671 136.115 44.2628ZM134.366 43.2372C134.584 42.8944 134.62 42.5363 134.473 42.1631C134.327 41.7899 134.043 41.4691 133.621 41.2008C133.047 40.8351 132.479 40.6788 131.918 40.7318C131.354 40.7895 130.924 41.05 130.629 41.5133L130.355 41.9442C130.729 42.4619 131.24 42.9272 131.888 43.34C132.43 43.685 132.918 43.8491 133.352 43.8323C133.786 43.8155 134.124 43.6172 134.366 43.2372Z" fill="#976464"/>
<path d="M127.801 35.8885L122.702 39.4778L124.509 44.1644L122.283 43.3194L120.382 37.9276L118.833 42.0096L116.923 41.2844L118.472 37.2025L113.457 39.9687L111.231 39.1237L115.693 36.8171L114.276 30.7542L116.425 31.5699L117.457 36.0239L119.288 35.0537L120.083 32.9588L121.993 33.6839L121.198 35.7788L121.924 37.7198L125.652 35.0727L127.801 35.8885Z" fill="#976464"/>
<path d="M107.618 29.5244L102.896 35.2043L106.602 41.2953L104.161 41.1189L101.533 36.6834L98.2863 40.6942L95.9117 40.5225L100.436 35.0596L96.5991 28.7279L99.0395 28.9043L101.815 33.5899L105.243 29.3527L107.618 29.5244Z" fill="#976464"/>
<path d="M93.1887 28.9073L94.2707 37.7468L92.3 37.988L91.5744 32.0596C90.3135 34.4161 89.1599 36.5631 88.1134 38.5005L86.1999 38.7347L85.1179 29.8952L87.0804 29.655L87.8021 35.5507L91.2834 29.1405L93.1887 28.9073Z" fill="#976464"/>
<path d="M83.727 37.4517L84.2171 39.1366L76.7339 41.3131L76.2438 39.6281L78.9966 38.8275L76.9996 31.9613L78.9772 31.3861L80.9742 38.2523L83.727 37.4517Z" fill="#976464"/>
<path d="M67.7035 35.4801L71.9825 43.2902L65.0178 47.1061L60.7387 39.296L62.5305 38.3143L65.9664 44.5855L69.3548 42.729L65.9189 36.4578L67.7035 35.4801Z" fill="#976464"/>
<path d="M55.9333 39.2301L63.2385 48.2505L61.6572 49.5312L60.724 48.3788C60.8111 49.7429 60.3787 50.8104 59.4269 51.5812C59.0129 51.9165 58.5482 52.1586 58.0327 52.3075C57.5173 52.4563 56.9871 52.5041 56.4421 52.4508C55.8971 52.3974 55.3466 52.2107 54.7906 51.8907C54.2303 51.5741 53.7238 51.1362 53.271 50.5771C52.8216 50.0223 52.5021 49.4401 52.3123 48.8305C52.1183 48.2244 52.0518 47.6492 52.1129 47.1051C52.1697 46.5644 52.3245 46.0574 52.5772 45.5841C52.83 45.1108 53.1655 44.7048 53.5838 44.3661C54.5313 43.5988 55.6446 43.3721 56.9236 43.6861L54.352 40.5107L55.9333 39.2301ZM58.8856 46.0302C58.3602 45.3814 57.7314 45.0108 56.9992 44.9182C56.267 44.8257 55.6234 45.0041 55.0686 45.4534C54.5095 45.9062 54.2042 46.4891 54.1527 47.2022C54.1047 47.9196 54.3554 48.6176 54.905 49.2962C55.4339 49.9492 56.0562 50.325 56.7722 50.4237C57.4916 50.5266 58.1266 50.3551 58.6771 49.9092C59.232 49.4599 59.5385 48.8654 59.5967 48.1256C59.6549 47.3859 59.4178 46.6874 58.8856 46.0302Z" fill="#976464"/>
<path d="M51.7248 52.0534C52.3656 52.597 52.8246 53.2529 53.1019 54.0212C53.3799 54.7972 53.4417 55.5987 53.2874 56.4257C53.1338 57.2605 52.7691 58.0171 52.1935 58.6955C51.6144 59.3782 50.9312 59.8609 50.1439 60.1436C49.3608 60.43 48.5656 60.4971 47.7582 60.3451C46.955 60.1967 46.2289 59.8471 45.5797 59.2964C45.1023 58.8913 44.724 58.4119 44.4448 57.8581C44.1698 57.3079 44.006 56.7368 43.9536 56.145C43.9054 55.5566 43.9789 54.9564 44.1742 54.3442C44.3694 53.732 44.6856 53.1684 45.1226 52.6533C45.6982 51.9748 46.3797 51.4942 47.1669 51.2114C47.9542 50.9287 48.7495 50.8615 49.5526 51.0099C50.3558 51.1584 51.0799 51.5062 51.7248 52.0534ZM50.4031 53.6113C49.8 53.0996 49.1158 52.8576 48.3504 52.8853C47.5893 52.9166 46.9564 53.2296 46.4519 53.8242C45.9296 54.4399 45.72 55.1156 45.8232 55.8514C45.9265 56.5871 46.2859 57.2162 46.9015 57.7385C47.5087 58.2537 48.1909 58.4939 48.9478 58.4591C49.7054 58.432 50.3401 58.1169 50.8517 57.5139C51.3704 56.9024 51.5803 56.2306 51.4813 55.4984C51.3823 54.7662 51.0229 54.1371 50.4031 53.6113Z" fill="#976464"/>
<path d="M42.1722 59.4146L41.6935 60.2417C42.511 61.4826 44.0914 62.7812 46.4348 64.1375L47.3831 64.6864L43.925 70.6614L37.7361 67.0794L37.1006 68.1775L33.8642 65.9903L34.7185 64.5144L36.5723 65.5873L39.7003 60.1827L37.9455 58.9386L38.7997 57.4627L42.1722 59.4146ZM40.6454 62.0527L38.7595 65.3112L43.4297 68.0141L44.8988 65.4758L43.8792 64.8857C42.4579 64.0631 41.38 63.1188 40.6454 62.0527Z" fill="#976464"/>
<path d="M37.228 69.9873C38.124 70.3196 38.6892 70.8806 38.9235 71.6704C39.161 72.4672 39.0917 73.3729 38.7155 74.3873C38.4119 75.2061 38.0106 75.933 37.5115 76.568L37.666 76.6252C38.2479 76.841 38.7566 76.8276 39.1922 76.5849C39.631 76.3494 39.9736 75.8994 40.2199 75.2351C40.4987 74.4833 40.6186 73.6228 40.5797 72.6536L42.3116 72.6984C42.3524 73.2992 42.3397 73.8627 42.2734 74.3888C42.2105 74.9219 42.0616 75.5051 41.8267 76.1385C41.376 77.3538 40.7307 78.1542 39.8907 78.5397C39.0539 78.9323 38.0691 78.9186 36.9362 78.4985L31.985 76.6625L32.6896 74.7623L33.7169 75.1433C33.1638 74.1708 33.0963 73.1207 33.5145 71.993C33.715 71.4523 33.9926 70.9958 34.3474 70.6236C34.7073 70.2533 35.1396 70.0036 35.6444 69.8745C36.1491 69.7454 36.677 69.783 37.228 69.9873ZM36.5929 71.9132C36.2118 71.7719 35.8543 71.8121 35.5202 72.0338C35.1861 72.2555 34.9322 72.6007 34.7584 73.0693C34.5216 73.7078 34.4881 74.2958 34.6578 74.8332C34.8327 75.3725 35.1776 75.7377 35.6926 75.9286L36.1715 76.1062C36.5991 75.6322 36.9466 75.0347 37.214 74.3138C37.4374 73.7113 37.4953 73.1997 37.3877 72.7791C37.2801 72.3584 37.0152 72.0698 36.5929 71.9132Z" fill="#976464"/>
<path d="M30.8202 79.5976L35.3981 83.8313L39.6021 81.0822L39.2422 83.4357L34.3683 86.424L38.6843 87.084L38.3755 89.1035L34.0595 88.4435L37.8151 92.7681L37.4553 95.1216L34.2649 91.2418L28.6335 93.8976L28.9809 91.6256L33.1198 89.6833L31.7874 88.0961L29.5724 87.7574L29.8812 85.7378L32.0963 86.0765L33.8421 84.9601L30.4727 81.8697L30.8202 79.5976Z" fill="#976464"/>
<path d="M28.8052 100.812L35.353 104.231L40.5258 99.3243L40.8678 101.747L37.086 105.251L41.6911 107.58L42.0239 109.937L35.7299 106.666L30.3494 111.751L30.0074 109.329L34.0027 105.628L29.138 103.17L28.8052 100.812Z" fill="#976464"/>
<path d="M31.2041 114.994L39.6174 112.074L40.2682 113.95L34.6256 115.908C37.1948 116.644 39.5366 117.32 41.651 117.935L42.2829 119.756L33.8696 122.676L33.2215 120.808L38.8329 118.861L31.8333 116.807L31.2041 114.994Z" fill="#976464"/>
<path d="M41.51 122.44L43.055 121.608L46.7498 128.47L45.2048 129.302L43.8456 126.777L37.5496 130.168L36.5732 128.354L42.8692 124.964L41.51 122.44Z" fill="#976464"/>
<path d="M42.9208 138.571L49.651 132.739L54.8517 138.741L48.1214 144.573L46.7835 143.029L52.1876 138.346L49.6574 135.426L44.2533 140.109L42.9208 138.571Z" fill="#976464"/>
<path d="M49.0666 149.321L56.3394 140.274L57.9253 141.549L56.9962 142.705C58.3111 142.331 59.4459 142.528 60.4004 143.296C60.8156 143.63 61.1504 144.033 61.4049 144.505C61.6594 144.977 61.8181 145.486 61.8811 146.029C61.9442 146.573 61.878 147.151 61.6827 147.762C61.4917 148.377 61.1708 148.964 60.72 149.525C60.2726 150.081 59.7711 150.517 59.2154 150.831C58.664 151.149 58.1159 151.335 57.5711 151.391C57.0306 151.449 56.5023 151.405 55.9863 151.258C55.4703 151.111 55.0026 150.869 54.5831 150.532C53.6329 149.768 53.1761 148.728 53.2127 147.411L50.6525 150.596L49.0666 149.321ZM55.0891 144.998C54.5661 145.649 54.3367 146.342 54.401 147.077C54.4653 147.812 54.7756 148.403 55.3321 148.851C55.8928 149.301 56.5271 149.477 57.235 149.376C57.9463 149.272 58.5755 148.879 59.1226 148.198C59.6491 147.544 59.8849 146.856 59.8301 146.135C59.7786 145.41 59.4768 144.826 58.9246 144.382C58.3682 143.935 57.7223 143.761 56.987 143.86C56.2517 143.96 55.6191 144.339 55.0891 144.998Z" fill="#976464"/>
<path d="M62.4984 150.756C62.894 150.015 63.4378 149.427 64.1298 148.993C64.8293 148.557 65.5995 148.327 66.4405 148.303C67.2888 148.276 68.1055 148.472 68.8905 148.891C69.6803 149.312 70.2968 149.877 70.74 150.587C71.1858 151.292 71.4199 152.055 71.4424 152.876C71.4675 153.692 71.2797 154.476 70.879 155.227C70.5843 155.779 70.1959 156.251 69.7139 156.641C69.2344 157.026 68.711 157.307 68.1437 157.484C67.5789 157.656 66.9767 157.711 66.3371 157.65C65.6974 157.589 65.0796 157.399 64.4836 157.081C63.6986 156.662 63.0845 156.098 62.6413 155.389C62.1982 154.679 61.964 153.916 61.9389 153.1C61.9138 152.284 62.1003 151.502 62.4984 150.756ZM64.301 151.718C63.9288 152.415 63.8373 153.135 64.0265 153.878C64.2183 154.615 64.6583 155.167 65.3463 155.534C66.0586 155.914 66.7634 155.976 67.4606 155.719C68.1578 155.462 68.6964 154.978 69.0764 154.265C69.4513 153.563 69.5415 152.845 69.3471 152.113C69.1601 151.378 68.7178 150.825 68.02 150.452C67.3125 150.075 66.6115 150.012 65.9169 150.264C65.2222 150.516 64.6836 151.001 64.301 151.718Z" fill="#976464"/>
<path d="M72.1547 158.732L73.0651 159.022C74.1022 157.958 75.0322 156.136 75.8552 153.556L76.1882 152.513L82.7651 154.611L80.5917 161.423L81.8003 161.809L80.3569 165.439L78.7323 164.92L79.3834 162.88L73.4343 160.982L72.5949 162.962L70.9703 162.444L72.1547 158.732ZM75.0586 159.658L78.6453 160.802L80.2854 155.662L77.4914 154.77L77.1333 155.893C76.6342 157.457 75.9426 158.712 75.0586 159.658Z" fill="#976464"/>
<path d="M83.2881 161.257C83.4218 160.311 83.8495 159.639 84.5712 159.242C85.2991 158.84 86.1987 158.715 87.27 158.866C88.1347 158.988 88.9304 159.225 89.6571 159.578L89.6802 159.415C89.767 158.8 89.6454 158.306 89.3155 157.932C88.9918 157.554 88.4792 157.315 87.7777 157.216C86.9837 157.103 86.1174 157.17 85.1788 157.414L84.8534 155.713C85.4318 155.545 85.985 155.437 86.5131 155.39C87.0474 155.338 87.649 155.359 88.3179 155.453C89.6013 155.634 90.5208 156.094 91.0765 156.833C91.6385 157.567 91.8349 158.532 91.6659 159.728L90.9273 164.957L88.9207 164.674L89.0739 163.589C88.2417 164.336 87.2301 164.626 86.0391 164.458C85.4681 164.377 84.963 164.203 84.5238 163.936C84.0853 163.663 83.7492 163.294 83.5154 162.829C83.2817 162.363 83.2059 161.839 83.2881 161.257ZM85.3051 161.467C85.2483 161.87 85.3638 162.21 85.6516 162.49C85.9394 162.769 86.3308 162.943 86.8256 163.013C87.5 163.108 88.0816 163.016 88.5704 162.736C89.0601 162.45 89.3433 162.035 89.4201 161.491L89.4916 160.985C88.9373 160.669 88.2795 160.456 87.5182 160.349C86.8819 160.259 86.3697 160.311 85.9817 160.506C85.5937 160.701 85.3681 161.021 85.3051 161.467Z" fill="#976464"/>
<path d="M93.8522 165.479L97.0154 160.105L93.4351 156.582L95.8113 156.433L99.7678 160.56L99.4947 156.203L101.534 156.075L101.807 160.433L105.234 155.843L107.61 155.694L104.497 159.637L108.29 164.574L105.996 164.718L103.218 161.087L101.951 162.726L102.091 164.963L100.052 165.091L99.9115 162.854L98.4493 161.386L96.1462 165.335L93.8522 165.479Z" fill="#976464"/>
<path d="M115.1 162.948L117.065 155.828L111.18 151.803L113.477 150.959L117.698 153.919L119.005 148.927L121.24 148.106L119.366 154.947L125.47 159.138L123.173 159.981L118.715 156.854L117.335 162.127L115.1 162.948Z" fill="#976464"/>
<path d="M128.446 157.635L123.829 150.019L125.527 148.99L128.623 154.098C128.805 151.431 128.975 149 129.134 146.804L130.782 145.804L135.399 153.42L133.708 154.445L130.629 149.365L130.087 156.64L128.446 157.635Z" fill="#976464"/>
<path d="M133.653 145.931L132.514 144.596L138.442 139.536L139.581 140.871L137.4 142.732L142.043 148.171L140.477 149.508L135.834 144.069L133.653 145.931Z" fill="#976464"/>
<path d="M149.109 141.134L141.982 135.794L146.744 129.439L153.871 134.779L152.646 136.414L146.924 132.126L144.607 135.218L150.329 139.506L149.109 141.134Z" fill="#976464"/>
<path d="M158.334 132.772L147.949 127.587L148.858 125.766L150.185 126.429C149.541 125.223 149.492 124.072 150.039 122.976C150.277 122.5 150.6 122.087 151.008 121.738C151.415 121.389 151.878 121.126 152.396 120.949C152.914 120.772 153.493 120.714 154.131 120.775C154.772 120.831 155.415 121.02 156.058 121.341C156.697 121.66 157.229 122.058 157.654 122.534C158.082 123.005 158.381 123.501 158.55 124.022C158.722 124.538 158.792 125.063 158.757 125.599C158.723 126.134 158.586 126.643 158.346 127.124C157.801 128.215 156.881 128.882 155.587 129.126L159.243 130.952L158.334 132.772ZM152.831 127.805C153.578 128.178 154.303 128.255 155.008 128.036C155.713 127.817 156.225 127.388 156.544 126.749C156.865 126.106 156.902 125.449 156.653 124.778C156.4 124.105 155.883 123.574 155.101 123.184C154.35 122.808 153.627 122.724 152.935 122.931C152.238 123.135 151.731 123.554 151.414 124.188C151.095 124.827 151.062 125.495 151.316 126.192C151.569 126.89 152.074 127.427 152.831 127.805Z" fill="#976464"/>
</svg>
